<svg width="413" height="449" xmlns="http://www.w3.org/2000/svg" xmlns:xlink="http://www.w3.org/1999/xlink" xml:space="preserve" overflow="hidden"><g transform="translate(-1993 -412)"><g><path d="M1996 424C1996 420.134 1999.13 417 2003 417L2397 417C2400.87 417 2404 420.134 2404 424L2404 452C2404 455.866 2400.87 459 2397 459L2003 459C1999.13 459 1996 455.866 1996 452Z" fill="#000000" fill-rule="evenodd" fill-opacity="1"/><path d="M1996 624C1996 620.134 1999.13 617 2003 617L2336 617C2339.87 617 2343 620.134 2343 624L2343 652C2343 655.866 2339.87 659 2336 659L2003 659C1999.13 659 1996 655.866 1996 652Z" fill="#000000" fill-rule="evenodd" fill-opacity="1"/><path d="M1996 824C1996 820.134 1999.13 817 2003 817L2397 817C2400.87 817 2404 820.134 2404 824L2404 852C2404 855.866 2400.87 859 2397 859L2003 859C1999.13 859 1996 855.866 1996 852Z" fill="#000000" fill-rule="evenodd" fill-opacity="1"/></g></g></svg>